<svg width="464" height="384" viewBox="0 0 464 384" fill="none" xmlns="http://www.w3.org/2000/svg">
<path d="M404.8 307.8C403.4 309.6 403.4 311.8 403 314.1C402.5 317.1 402.3 320.1 402.3 323.2C402.3 326.7 401.9 330.2 402.1 333.6C402.3 337.1 404 338 407.1 339C411.3 340.3 417.6 340 418.6 334.7C419.9 327.6 419.6 319.3 418.4 312.2C417.9 309 416.1 307.2 412.8 306.6C411.5 306.2 403.2 306.3 404.8 307.8Z" fill="var(--color-graph-cornflower-blue, #6a9dff)"/>
<path d="M344 339.5C341.9 340 340.3 343.4 341.5 345.7C342.2 346.9 343.6 347.1 344.9 347.4C346.9 347.9 348.9 348 350.9 347.9C353.8 347.8 357.2 349 360 347.8C361 347.4 361.8 346.6 362 345.5C362.2 344.1 363.1 341.6 362 340.5C361.2 339.7 359.7 339.3 358.7 339.2C356.8 338.9 354.5 339.2 352.6 339.2C350.6 339.3 348.9 339.7 346.9 339.6C346 339.5 344.2 339.2 343.4 339.8C343.4 339.7 343.2 339.6 344 339.5Z" fill="var(--color-graph-cornflower-blue, #6a9dff)"/>
<path d="M375.4 286.8C374.4 287.1 373.5 286.9 372.4 287C371.4 287.1 370.5 287.3 369.5 287.2C368.1 287.1 366.6 286.3 365.5 285.6C364.1 284.6 363.4 283 362.1 281.9C360.7 280.7 359.2 279.8 357.3 279.8C355 279.7 352.8 280.8 351.2 282.4C349.7 283.8 349.2 285.7 349.2 287.7C349.1 292.3 353.4 294.9 357.7 294.9C361.4 294.9 365.2 294.9 368.8 294.1C371.2 293.6 374.3 293.4 376.6 294.5C379 295.7 382.7 295.9 385.3 294.9C386.2 294.5 387 294.1 388 293.9C389.9 293.5 391.7 293.7 393.7 293.9C397 294.2 400.4 294.7 403.8 294.7C406.3 294.7 409.7 295 412.1 293.8C415.5 292 416.3 287.1 414 284C412.9 282.5 410.7 280.4 408.8 280C407.4 279.7 405.8 280 404.5 280.5C403.4 280.9 401.4 281.7 400.5 282.6C399.9 283.2 399.8 284.1 399.2 284.8C398.1 286.2 397.2 287.2 395.4 287.5C393.6 287.8 390.5 288.2 388.9 287.3C387.6 286.6 387.3 285.1 385.8 284.4C383.6 283.4 380.3 283.6 378 284.6C376.7 285.2 375.9 286 375.6 287.3C375.1 287.1 375 287 375.4 286.8Z" fill="var(--color-graph-cornflower-blue, #6a9dff)"/>
<path d="M419.4 323.7C419.4 320.3 420.4 309.1 415.9 307.5C413.4 306.6 409.4 307 406.8 307.5C404.5 307.9 403.7 308.5 403 310.8C402.2 313.2 402.7 316.4 402.4 319.1C402.1 322.6 402.2 326.2 402 329.8C401.9 332.5 400.9 336.5 403.6 338.3C406.1 340 410.7 339.8 413.7 339.7C417.7 339.5 419.2 337.6 419.4 333.6C419.6 330.3 419.4 326.8 419.4 323.5V323.7Z" stroke="var(--color-N600, #0f1e57)" stroke-width="2" stroke-miterlimit="10" stroke-linecap="round" stroke-linejoin="round"/>
<path d="M401.4 313.7C400 314.6 395.7 314.2 393.8 313.3C391 311.8 390.9 309 390.7 306C390.5 303 390.7 300.4 387.3 299.5C384.8 298.9 381.6 298.5 378.8 298.6C376 298.7 373.5 298.6 372.3 301.4C371.1 304.1 371.8 307.6 370.9 310.4C369.5 315 367 314.4 362.8 314.6C359.4 314.8 355.1 315.8 352.4 318C346.2 322.9 345.7 332.2 346.7 339.4" stroke="var(--color-N600, #0f1e57)" stroke-width="2" stroke-miterlimit="10" stroke-linecap="round" stroke-linejoin="round"/>
<path d="M359.6 338.9C359.8 338.5 358.8 335.4 359 334.1C359.2 332.5 360 331.2 361.2 330C363.8 327.5 367.5 327.4 370.8 328.8C374.3 330.4 376.2 333.1 380.4 333.5C384.4 333.9 388 332.5 391.6 330.8C393.8 329.8 395.8 328.8 398.3 329.4C399.6 329.7 402.2 330.7 401.9 332.4" stroke="var(--color-N600, #0f1e57)" stroke-width="2" stroke-miterlimit="10" stroke-linecap="round" stroke-linejoin="round"/>
<path d="M352.4 348C355.8 348 361.4 348.8 362.6 346.6C363.3 345.4 363.3 342.4 362.6 341.1C361.7 339.4 360.2 339.5 358.3 339.5C356.4 339.5 354.6 339.5 352.6 339.5C350.7 339.5 348.6 339.6 346.6 339.6C344.8 339.6 342.9 339.4 342 341C341 342.7 341.2 345 342 347C342.7 349 349 347.9 352.4 348Z" stroke="var(--color-N600, #0f1e57)" stroke-width="2" stroke-miterlimit="10" stroke-linecap="round" stroke-linejoin="round"/>
<path d="M375.6 290.7C375.8 288.1 374.5 285.2 377.6 284.1C379.9 283.4 383.4 283.4 385.6 284.1C388.3 285 387.3 289.9 387.2 292.3C387.1 293.7 387 294.3 385.6 294.8C384 295.4 382.1 295.6 380.4 295.6C379.2 295.6 377.1 295.5 376.3 294.4C375.2 293 375.8 290.6 375.6 289" stroke="var(--color-N600, #0f1e57)" stroke-width="2" stroke-miterlimit="10" stroke-linecap="round" stroke-linejoin="round"/>
<path d="M375.7 293.8C375.1 294.2 374 294 373.3 294C372.3 294.1 371.2 294.3 370.2 294.4C368.7 294.6 367.1 294.8 365.6 294.9C364.1 295 362.5 295.1 361 295C357.9 294.8 354.4 295.1 351.4 293.7C347.5 291.7 347.9 286.5 349.9 283.3C351.3 281 354.7 279.6 357.5 279.7C359.3 279.8 361.5 280.4 362.6 281.8C363.5 282.8 363.6 284.1 364.2 285.3C365.1 287 368 286.9 369.6 287C371.6 287.1 375.2 287.1 375.1 287.1" stroke="var(--color-N600, #0f1e57)" stroke-width="2" stroke-miterlimit="10" stroke-linecap="round" stroke-linejoin="round"/>
<path d="M387.5 293.8C388.1 294.2 389.2 294 389.9 294C390.9 294.1 392 294.3 393 294.4C394.5 294.6 396.1 294.8 397.6 294.9C399.1 295 400.7 295.1 402.2 295C405.3 294.8 408.8 295.1 411.8 293.7C415.7 291.7 415.3 286.5 413.3 283.3C411.9 281 408.5 279.6 405.7 279.7C403.9 279.8 401.7 280.4 400.6 281.8C399.7 282.8 399.6 284.1 399 285.3C398.1 287 395.2 286.9 393.6 287C391.6 287.1 388 287.1 388.1 287.1" stroke="var(--color-N600, #0f1e57)" stroke-width="2" stroke-miterlimit="10" stroke-linecap="round" stroke-linejoin="round"/>
<path d="M426.8 62.4C426.9 59.8 427.3 57.3 426.6 54.8C426.4 54.2 426.2 53.7 426 53.1C425.4 51.4 424.6 49.6 423.7 48.1C422.6 46.4 421.4 44.8 419.9 43.3C418.7 42.1 417.4 41.4 415.9 40.3C414.5 39.2 413.1 38.2 411.4 37.5C409.8 37 408.2 36.5 406.5 36.2C403.8 35.6 400.9 35.7 398.2 36C396.7 36.2 395.1 36.6 393.6 37.2C392 37.8 390.1 38.3 388.6 39C386.1 40.2 383.8 42.1 382 44.2C378.7 48.3 377.3 53.3 376.2 58.3C375.5 58 375 57.4 374.3 57.1C373.2 56.5 372.1 56.4 370.8 56.4C367.6 56.4 364.5 57.1 361.6 58.4C359.4 59.4 357.4 61.1 356.2 63.2C354.8 65.5 353.4 68.3 352.8 71.1C352.6 72.1 352.9 74.9 351.9 75.4C351.5 75.6 350.5 75.4 350.1 75.4H347.4C345.2 75.4 343 75.2 340.9 76.1C339 76.9 337.1 77.8 335.3 79C332.2 80.8 330.3 84 328 86.6C326.7 88 328.3 88.1 329.7 88.4C330.4 88.5 331.2 88.6 331.9 88.6C333.4 88.6 334.8 89 336.2 89.2C339.4 89.8 342.6 90 345.9 89.7C347.7 89.5 349.6 89.6 351.5 89.6C355.1 89.6 358.5 90.2 362.1 90.1C368 89.9 373.8 90.4 379.7 90.5C383.1 90.6 386.4 90.5 389.7 90.3C391.4 90.1 393.1 90.3 394.8 90.5C397.1 90.7 399.6 90.8 401.9 90.7C403.7 90.7 405.6 90.4 407.4 90.3C409.3 90.3 411.4 90.4 413.3 90.2C417.1 89.9 420.8 89.1 424.6 89.4C426.3 89.5 428 90.1 429.7 90.3C431.1 90.5 432.6 90.5 434 90.5C436.4 90.5 438.9 90.3 441.3 90.3C442.4 90.3 443.7 90.2 444.9 90.5C445.8 90.7 446.8 91.1 447.8 90.6C449.6 89.5 448.5 86.8 447.8 85.4C447.1 84 446.2 84.1 444.9 83.4C444.2 83 443.8 82.1 443.1 81.7C443.4 80.8 444.1 80.4 444.2 79.3C444.3 77.5 444 75.8 443.5 74.1C442.9 71.9 442.4 69.2 440.7 67.6C439.6 66.5 438.1 65.7 436.8 64.7C435.7 63.8 434.6 63.1 433.3 62.3C432 61.5 430.5 61.4 429.1 61.3C428.1 60.9 427.6 60.7 426.8 62.4Z" fill="var(--color-N600, #0f1e57)"/>
<path d="M153.9 152.3C154.1 151.3 154.3 150.3 154.6 149.2C155.1 146.4 155.5 141.7 155.7 138.7C155.9 136.7 155.7 116.6 153.7 116.2C150.8 115.5 146.8 116.5 144 117.2C143.1 117.4 143 127.5 143 127.8C140.7 131.2 143.7 144.9 144.7 148.3C146 153 145.9 158 146.9 162.8C147.7 166.8 147.9 171.2 148.3 175.2C149 182 146.2 188.5 144.2 194.7C143.5 196.8 142.7 198.9 141.4 200.7C140.4 202.2 138.1 203.4 137.9 205.3C137.8 206 137.9 206.4 138 206.8C137.8 207.7 137.7 208.5 137.2 209.1C136.5 210 135.3 211 134.6 211.6C131.4 214.2 128 213.7 124.5 215.3C119.6 217.5 115.4 222.4 112 226.5C105.4 234.6 103.6 246.9 103.1 256.9C102.6 267.4 105.1 279.6 112.7 287.1C119.9 294.3 127.6 299.3 137.5 301.5C142.5 302.6 147.9 302.9 153 302C158 301.1 163.3 301.1 168.1 299.7C176 297.4 181.8 291.4 186.8 285.3C192 279.1 195.6 269.9 195.6 261.7C195.6 256.9 195.5 252.3 195.1 247.5C194.7 241.8 191.6 235.9 189.2 231C188.7 229.9 187.9 228.9 187.8 227.7C189.4 226.7 191.9 227.3 193.8 226.7C196.2 225.9 198.7 225.1 200.9 224C203 223 205.3 222.3 207.2 221.2C208.8 220.3 209.9 218.4 211.4 217.8C211.1 221 211.6 224.4 211.7 227.7C211.7 231.9 211.5 236.1 211.8 240.3C212.2 245.6 214 258.2 222.1 255.1C224.6 254.1 228.1 252.4 229.6 250.2C232.2 246.3 231.8 239.7 231.2 235.4C230.5 230.1 230.3 225.4 230.9 220C231.3 215.5 231.1 211.7 230.9 207.5C230.9 206.5 231 205.5 231.1 204.7C232 204.4 232.7 203.4 233.6 202.8C235.1 201.8 236 202.3 237.5 203C239.4 203.8 241.1 204.1 242.1 206.1C243.2 208.4 243.3 211.2 244.3 213.5C245.7 216.8 247.1 220.6 250.2 222.8C252.3 224.2 255.4 224.3 257.8 223.8C259.2 223.5 261.1 221.6 262.3 223.3C263.9 225.6 260.6 227.9 259.9 229.9C259.2 232.2 259.1 234.5 258.1 236.8C257.6 238 256.9 239.3 256.4 240.5C255.2 243.6 254.9 246.8 253.7 250C252.5 253.4 251.3 256.8 250 260.1C247.5 266.4 242.2 271.8 243.6 279.2C244.6 284.5 253.5 286.6 258 287.6C263 288.7 268.1 287.2 273.2 287.4C277.4 287.6 281.7 288.1 285.9 288.3C294.1 288.6 302.5 288.7 310.7 288C315.1 287.6 320.1 286.1 322.6 282.3C325 278.6 325.4 275 324 271.1C322.5 266.9 320.7 262.6 318.8 258.6C315.6 252 311.9 245.7 309.8 238.7C306.6 228.7 300.2 218.4 299.9 207.6C299.8 204 302.7 200.5 305.1 198.1C309.3 193.7 314.5 192.9 320 195.6C321.6 196.4 323.8 198.7 326 200.4C325.9 200.9 325.8 201.5 325.7 202C325 204.8 325.7 207.6 326.2 210.4C327 214.9 328.7 218.1 332.8 220.4C335 221.6 337.1 222.8 339.7 223.1C342.5 223.4 345.1 222.9 347.9 222.7C353.5 222.3 358.8 222.6 364.3 221.6C368 220.9 372.6 220.1 375.7 217.6C380.8 213.6 379.6 205.8 379.6 200.1C379.6 198.4 379.5 196.6 379.3 194.9C379.1 193.4 379.2 190.9 378.6 189.6C377.7 187.7 375.2 188.2 373.5 188.3C371 188.5 367.7 187.8 365.8 186.2C365.1 185.7 364.7 184.7 363.8 184.6C362.4 184.4 361.7 185.8 361 186.7C358.6 189.1 355.6 189.2 352.5 188.9C350.1 188.7 347.9 188.2 345.8 187.2C344.8 186.7 343.8 185.8 342.8 185.7C340.3 185.6 337.8 188.1 335.1 188C333.9 188 331.3 186.9 329.3 186.7C329.3 186.7 329.3 186.7 329.3 186.6C328.8 186.1 327.4 184.2 326.5 185.1C325.5 185.9 327.2 188.3 325.4 188.7C324.3 189 322.6 187.3 321.5 187C320.1 186.7 318.6 186.6 317.2 186.5C313.1 186.3 309.5 187 305.9 189.2C304.5 190.1 302.9 190.7 301.7 191.8C300.6 192.7 299.9 194.1 298.7 194.7C298.4 193.8 298.9 189.8 297.9 189.5C297.1 189.3 295.2 190.8 294.3 191.1C292 191.9 290.1 192 287.8 191C286.8 190.6 286.1 189.6 285 189.3C283.7 188.9 282.9 189.7 281.7 190.1C280 190.6 277.9 190.6 276.1 190.3C275 190.1 273.4 188.2 272.4 188.7C271.1 189.2 270.4 196.4 270.2 197.6C269.7 200 269.7 202.6 268.9 205C268.1 207.8 266.8 210.6 265.7 213.2C264.2 216.8 262 217.1 258.2 216.1C253.1 214.7 250.8 209.7 249.2 205C247.7 201 248.2 194.2 242.3 193.1C240.2 192.7 237.7 194 235.8 194.4C234.9 194.6 233.7 194.6 232.9 195.2C233 195.1 233.1 195 233.3 194.9C232.6 194.9 231.9 195.1 231.2 195.6C231 192.7 230.7 189.7 230.5 186.8C230.4 182.9 230.8 181.9 227 182.9C223 183.9 221.8 180.8 218.4 182.4C217.5 182.8 217 183.6 215.9 183.7C215 183.8 214.3 183.2 213.8 183.2C212.5 183.3 212 182.9 211.1 184.3C210.3 185.6 210.9 187 210.9 188.4C210.8 191.5 210.8 194.5 210.9 197.7C211 202 211.2 206.7 209.6 210.8C208.7 213.1 206.1 214.9 204 216.5C197.3 221.4 185.4 224 177.8 219.7C173.8 217.4 170.5 215.7 166 214.1C164 213.3 161.9 212.5 160.7 210.6C159.8 209.3 160.2 206.8 159.5 208C159.3 207.7 159.2 207.3 159.1 207C159.2 204.9 158.1 202.9 157 201.1C153.1 195.4 152.1 187.9 152 181.3C151.9 177.6 151.9 173.5 152.7 169.9C153.4 166.3 153.1 162.6 153.2 158.9C153.3 156 153.6 154.2 153.9 152.3ZM232.6 195.3C232.6 195.1 232.6 195.1 232.6 195.3L232.7 195.2C232.7 195.1 232.6 195.1 232.6 195.3Z" fill="var(--color-blue-light, #e5eaff)"/>
<path d="M226.3 107.9C222.2 107.9 218.1 107.9 214.1 108.1C212.1 108.2 208.2 109 209.1 112.1C210.1 115.7 217.4 115.5 220.9 115.4C224.4 115.3 233.6 115.6 234.7 111.9C235.8 107.7 226.9 108.2 226.3 107.9Z" stroke="var(--color-N600, #0f1e57)" stroke-width="2" stroke-miterlimit="10" stroke-linecap="round" stroke-linejoin="round"/>
<path d="M232.2 197.6C232.1 194 231.9 190.5 231.8 186.9C231.6 178.5 232 155.9 232.1 147.6C232.3 137.7 232.4 127.7 233 117.7C233.1 116.2 233 115.4 233 113.9C232.9 114.2 233.1 114.9 233 115.2" stroke="var(--color-N600, #0f1e57)" stroke-width="2" stroke-miterlimit="10" stroke-linecap="round" stroke-linejoin="round"/>
<path d="M211.5 219.8C211.6 225.6 211.7 232.7 211.7 238.4C211.7 244.1 211.6 251.7 215.8 256.3C219 259.8 225.1 259.2 228.2 256.1C231.9 252.4 231.6 245.1 231.8 240.2C232.2 232.6 231.6 224.8 231.8 217.1C231.9 214 232 211 232.1 207.9" stroke="var(--color-N600, #0f1e57)" stroke-width="2" stroke-miterlimit="10" stroke-linecap="round" stroke-linejoin="round"/>
<path d="M210.3 113.8C210.4 122.4 211.2 127.9 210.7 136.5C210.6 139.1 210.9 145 210.8 147.7C210.8 150.4 210.6 156.1 210.7 158.7C210.9 164 210.9 166.4 210.9 171.8C211 177.7 210.9 197.6 211.3 203.5C211.4 205.4 211.4 207.1 211.5 208.9" stroke="var(--color-N600, #0f1e57)" stroke-width="2" stroke-miterlimit="10" stroke-linecap="round" stroke-linejoin="round"/>
<path d="M265.1 217.9C266.6 213.6 268.1 210.1 269.6 206.2C271 202.3 271.2 198.7 271.9 194.6C272.7 189.8 272.4 179.5 272.2 179.7" stroke="var(--color-N600, #0f1e57)" stroke-width="2" stroke-miterlimit="10" stroke-linecap="round" stroke-linejoin="round"/>
<path d="M289.7 291.4C278.3 291.4 266.6 291.7 255.6 290.1C250.3 289.3 245.2 287.7 243.7 283.8C242.1 279.6 242.6 276.5 243.8 273.2C245.3 268.7 248.2 264.4 250 260C252.4 254.4 254.1 248.6 256.1 243C258.2 237 260.3 231.6 262.5 225.5" stroke="var(--color-N600, #0f1e57)" stroke-width="2" stroke-miterlimit="10" stroke-linecap="round" stroke-linejoin="round"/>
<path d="M301.2 209.3C302.1 212.9 302.9 216.2 304.4 219.7C307 225.8 309.3 233.2 311.6 239.3C315 248.5 318.7 257 322.3 266.1C324.5 271.8 328.5 279.5 324 285.1C321.1 288.7 317 290.2 311.4 291C308.1 291.4 303.8 291.5 300.4 291.5C298.4 291.5 291.9 291.2 289.8 291.3" stroke="var(--color-N600, #0f1e57)" stroke-width="2" stroke-miterlimit="10" stroke-linecap="round" stroke-linejoin="round"/>
<path d="M298.9 180C299 185 299.6 192 299.7 197.3" stroke="var(--color-N600, #0f1e57)" stroke-width="2" stroke-miterlimit="10" stroke-linecap="round" stroke-linejoin="round"/>
<path d="M290.5 173.1C288.9 173 287.2 172.8 285.7 172.8C283.1 172.9 279.9 172.8 276.9 173C275.2 173.1 273.2 172.6 271.6 173.8C270.6 174.6 269.6 176 269.9 177.5C270.2 179.1 271.9 179.7 273.1 179.9C276.9 180.7 280.9 180.1 284.7 180.2C288.7 180.3 292.8 179.9 296.8 179.9C298.7 179.9 302.4 179 301.3 175.9C300 172 296.1 173.1 293.5 173.3C292.3 173.2 291.3 173.2 290.5 173.1Z" stroke="var(--color-N600, #0f1e57)" stroke-width="2" stroke-miterlimit="10" stroke-linecap="round" stroke-linejoin="round"/>
<path d="M150 305.5C145.3 305.6 140.6 305.2 136 304.1C131.8 303.1 128.1 301.4 124.1 299.5C119.5 297.2 115.5 293 112.2 289.1C108.5 284.9 105.2 279.2 104 273.7C99 251.1 107.4 223.3 130 214.7C132.1 213.9 135 213.5 136.7 211.9C138.8 209.9 138.9 207.3 139.1 204.7C140 196.4 140.8 170 140.5 161.7C139.2 161.9 136.1 161 136.3 159.2C136.5 156.7 140.5 157.5 142.1 157.2" stroke="var(--color-N600, #0f1e57)" stroke-width="2" stroke-miterlimit="10" stroke-linecap="round" stroke-linejoin="round"/>
<path d="M179.9 221.2C176.5 218.3 173.5 216.6 169.1 215C167 214.2 164.1 213.8 162.4 212.2C160.3 210.2 160.2 207.6 160 205C159.1 196.7 158.3 170.3 158.6 162C159.4 161.7 163.5 162 162.4 159.1C161.7 157.2 158.6 157.7 157.1 157.7" stroke="var(--color-N600, #0f1e57)" stroke-width="2" stroke-miterlimit="10" stroke-linecap="round" stroke-linejoin="round"/>
<path d="M149.3 305.5C154 305.6 158.7 305.2 163.3 304.1C167.5 303.1 171.2 301.4 175.2 299.5C179.8 297.2 183.8 293 187.1 289.1C190.8 284.9 194.1 279.2 195.3 273.7C198.7 258.9 195.8 241.2 187.4 228.8" stroke="var(--color-N600, #0f1e57)" stroke-width="2" stroke-miterlimit="10" stroke-linecap="round" stroke-linejoin="round"/>
<path d="M331.2 142.5C329.1 142.5 326.4 142.1 325.4 144.4C324 147.6 329.3 147.3 330.7 147.5C335.3 147.7 339.8 148.2 344.4 148.2C350.9 148.1 357.5 148.4 364.1 148.2C367.8 148.1 371.1 148.2 374.9 148.2C376.6 148.2 381.4 148.4 382.2 146.1C382.9 144.5 380.8 143.5 379.8 143.4C376.6 143 374.5 142.7 371.3 142.9C368.6 143 366.2 143.2 363.5 143.2C360.9 143.2 358.3 143.1 355.7 143.1C351.9 143.1 347.8 142.9 344 143C341.7 142.8 331.6 142.5 331.2 142.5Z" stroke="var(--color-N600, #0f1e57)" stroke-width="2" stroke-miterlimit="10" stroke-linecap="round" stroke-linejoin="round"/>
<path d="M326.3 190.4C326.4 187.8 326.4 185.2 326.3 182.4C326.1 175.1 326 167.9 326 160.7C326 156.6 326.1 151.9 326.7 147.7" stroke="var(--color-N600, #0f1e57)" stroke-width="2" stroke-miterlimit="10" stroke-linecap="round" stroke-linejoin="round"/>
<path d="M352.2 225.7C344.6 225.8 330.9 226.6 326.9 217.4C325.7 214.6 325.4 210.5 325.6 207.4C325.7 205.7 325.8 203.9 325.9 202.2" stroke="var(--color-N600, #0f1e57)" stroke-width="2" stroke-miterlimit="10" stroke-linecap="round" stroke-linejoin="round"/>
<path d="M352.2 225.7C359.8 225.8 375.8 226.6 379.8 217.4C381 214.6 381.3 210.5 381.1 207.4C380.7 201.8 380.6 196 380.3 190.4C380.2 187.8 380.2 185.2 380.3 182.4C380.5 175.1 380.6 167.9 380.6 160.7C380.6 156.6 380.7 151.3 380.6 147.7" stroke="var(--color-N600, #0f1e57)" stroke-width="2" stroke-miterlimit="10" stroke-linecap="round" stroke-linejoin="round"/>
<path d="M179.9 221.2C186.4 223.4 194 222.1 199.9 219.5C203.9 217.6 210.6 214.2 211.4 209.1" stroke="var(--color-N600, #0f1e57)" stroke-width="2" stroke-miterlimit="10" stroke-linecap="round" stroke-linejoin="round"/>
<path d="M187.1 229C190.7 231.4 195.5 230.1 199.8 228.3C203.1 227 210.2 223.3 211.3 219.7" stroke="var(--color-N600, #0f1e57)" stroke-width="2" stroke-miterlimit="10" stroke-linecap="round" stroke-linejoin="round"/>
<path d="M232.5 197.6C236 195.4 238.7 193.8 242.6 194.2C249.9 194.9 250.3 200.7 250.8 207C251.3 213.3 258.7 220.3 265.2 218" stroke="var(--color-N600, #0f1e57)" stroke-width="2" stroke-miterlimit="10" stroke-linecap="round" stroke-linejoin="round"/>
<path d="M232.2 208C234.9 204.1 238.9 204.4 241.8 207.5C244.5 210.6 244.2 216.4 245.8 219.9C248.4 225.3 257 229.7 262.6 225.3" stroke="var(--color-N600, #0f1e57)" stroke-width="2" stroke-miterlimit="10" stroke-linecap="round" stroke-linejoin="round"/>
<path d="M299.7 197.3C301.2 192 308.3 189.1 313.6 187.9C317.7 187 323.1 187.4 326.3 190.3" stroke="var(--color-N600, #0f1e57)" stroke-width="2" stroke-miterlimit="10" stroke-linecap="round" stroke-linejoin="round"/>
<path d="M301.2 209.3C301.7 207.2 302.2 205.7 303.2 204C304.2 202.4 307.4 199.2 309.3 198.1C312.2 196.4 317.6 195.5 321 197.1C322.4 197.9 325.3 200.7 325.9 202.2" stroke="var(--color-N600, #0f1e57)" stroke-width="2" stroke-miterlimit="10" stroke-linecap="round" stroke-linejoin="round"/>
<path d="M211.1 181.2C213.3 186.2 217.6 184.9 221.3 182C222.3 186.6 229.5 184.1 231.5 182" stroke="var(--color-N600, #0f1e57)" stroke-width="2" stroke-miterlimit="10" stroke-linecap="round" stroke-linejoin="round"/>
<path d="M272.8 190.2C274.2 191.9 278.1 192.5 280.4 192.6C282.7 192.7 283.7 191.2 285.4 190.4C287.8 194.6 296.5 193.2 299 190.4" stroke="var(--color-N600, #0f1e57)" stroke-width="2" stroke-miterlimit="10" stroke-linecap="round" stroke-linejoin="round"/>
<path d="M326.5 185.8C330.7 189.6 339.7 192.7 343.9 186.5C346.1 189 348.9 191.1 352.4 191.2C354.7 191.3 357.6 190.8 359.8 190C362.1 189.1 363.5 187.3 365.7 186.3C367.9 190.4 375.7 192.1 379.6 189.7" stroke="var(--color-N600, #0f1e57)" stroke-width="2" stroke-miterlimit="10" stroke-linecap="round" stroke-linejoin="round"/>
<path d="M145.6 154.5C145.4 153.4 142.9 136.2 142.6 135.1C141.7 131.2 140.8 122.4 144.5 119.4" stroke="var(--color-N600, #0f1e57)" stroke-width="2" stroke-miterlimit="10" stroke-linecap="round" stroke-linejoin="round"/>
<path d="M139.2 207.2C144.6 200.7 148.6 188 148.6 179.5C148.6 171.3 147.3 162.7 145.6 154.4" stroke="var(--color-N600, #0f1e57)" stroke-width="2" stroke-miterlimit="10" stroke-linecap="round" stroke-linejoin="round"/>
<path d="M160.1 207.5C160.1 206 156.4 199.8 155.4 197C153.8 192.1 153 186.9 153.3 181.6C153.5 176.6 154.1 171.6 154.3 166.6C154.5 161.2 155.1 140.8 156.5 135.5C157.6 131.6 158 122.1 155 118.3" stroke="var(--color-N600, #0f1e57)" stroke-width="2" stroke-miterlimit="10" stroke-linecap="round" stroke-linejoin="round"/>
<path d="M176.3 241.9C174.1 238.7 168.8 235.8 166.3 240.6C164.2 244.6 170.5 247.2 171.9 251.1C174.1 257.2 172.4 264.8 170.2 270.6C168.9 273.8 167.5 277.2 165.8 280.2C164.9 281.7 162.9 283.5 162.8 285.2C162.4 290.2 168.2 289.6 171.2 286.9C174.6 284.1 176.5 279.7 178.5 275.8C181.7 269.5 183.3 262.1 181.9 255.1C180.9 250.7 179 244 176.3 241.9Z" fill="white" stroke="var(--color-N600, #0f1e57)" stroke-width="2" stroke-miterlimit="10" stroke-linecap="round" stroke-linejoin="round"/>
<path d="M223.2 130.6C224.6 130.5 227 130.6 228 130.8" stroke="var(--color-N600, #0f1e57)" stroke-width="2" stroke-miterlimit="10" stroke-linecap="round" stroke-linejoin="round"/>
<path d="M222.8 142.5C223.7 142.1 225.2 142.6 226.4 142.7C227.1 142.8 228.6 143.1 227.9 142.8" stroke="var(--color-N600, #0f1e57)" stroke-width="2" stroke-miterlimit="10" stroke-linecap="round" stroke-linejoin="round"/>
<path d="M223.2 154.4C224.7 154.4 226.9 154.6 228 154.6" stroke="var(--color-N600, #0f1e57)" stroke-width="2" stroke-miterlimit="10" stroke-linecap="round" stroke-linejoin="round"/>
<path d="M223.2 166.4C223.5 166 226.9 166.3 228 166.6" stroke="var(--color-N600, #0f1e57)" stroke-width="2" stroke-miterlimit="10" stroke-linecap="round" stroke-linejoin="round"/>
<path d="M221.9 178.1C224 178 225.9 178.4 228 178.3" stroke="var(--color-N600, #0f1e57)" stroke-width="2" stroke-miterlimit="10" stroke-linecap="round" stroke-linejoin="round"/>
<path d="M223.2 189.9C224.6 189.8 227 189.9 228 190.1" stroke="var(--color-N600, #0f1e57)" stroke-width="2" stroke-miterlimit="10" stroke-linecap="round" stroke-linejoin="round"/>
<path d="M222.8 201.8C223.7 201.4 225.2 201.9 226.4 202C227.1 202.1 228.6 202.4 227.9 202.1" stroke="var(--color-N600, #0f1e57)" stroke-width="2" stroke-miterlimit="10" stroke-linecap="round" stroke-linejoin="round"/>
<path d="M223.2 213.7C224.7 213.7 226.9 213.9 228 213.9" stroke="var(--color-N600, #0f1e57)" stroke-width="2" stroke-miterlimit="10" stroke-linecap="round" stroke-linejoin="round"/>
<path d="M223.2 225.6C223.5 225.2 226.9 225.5 228 225.8" stroke="var(--color-N600, #0f1e57)" stroke-width="2" stroke-miterlimit="10" stroke-linecap="round" stroke-linejoin="round"/>
<path d="M221.9 237.3C224 237.2 225.9 237.6 228 237.5" stroke="var(--color-N600, #0f1e57)" stroke-width="2" stroke-miterlimit="10" stroke-linecap="round" stroke-linejoin="round"/>
<path d="M374.9 216.9C371.4 217 367.9 216.6 364.5 216.7" stroke="var(--color-N600, #0f1e57)" stroke-width="2" stroke-miterlimit="10" stroke-linecap="round" stroke-linejoin="round"/>
<path d="M374.9 205.3C372.5 205.4 368.4 205.3 366.6 205.1" stroke="var(--color-N600, #0f1e57)" stroke-width="2" stroke-miterlimit="10" stroke-linecap="round" stroke-linejoin="round"/>
<path d="M374.9 193.3C373.4 193.7 370.8 193.2 368.8 193.1C367.7 193 365.1 192.7 366.2 193" stroke="var(--color-N600, #0f1e57)" stroke-width="2" stroke-miterlimit="10" stroke-linecap="round" stroke-linejoin="round"/>
<path d="M374.9 181.4C372.3 181.4 368.6 181.2 366.6 181.2" stroke="var(--color-N600, #0f1e57)" stroke-width="2" stroke-miterlimit="10" stroke-linecap="round" stroke-linejoin="round"/>
<path d="M374.9 169.4C374.4 169.8 368.6 169.5 366.6 169.2" stroke="var(--color-N600, #0f1e57)" stroke-width="2" stroke-miterlimit="10" stroke-linecap="round" stroke-linejoin="round"/>
<path d="M374.9 157.7C371.4 157.8 367.9 157.4 364.5 157.5" stroke="var(--color-N600, #0f1e57)" stroke-width="2" stroke-miterlimit="10" stroke-linecap="round" stroke-linejoin="round"/>
<path d="M294.9 274.1C301.8 274.5 311.1 274.3 318 274.3" stroke="var(--color-N600, #0f1e57)" stroke-width="2" stroke-miterlimit="10" stroke-linecap="round" stroke-linejoin="round"/>
<path d="M294.9 256.7C300 256.7 307.7 257.4 312.8 257" stroke="var(--color-N600, #0f1e57)" stroke-width="2" stroke-miterlimit="10" stroke-linecap="round" stroke-linejoin="round"/>
<path d="M294.9 237.6C297.8 237.5 301 237.2 304.1 237.6C304.7 237.7 306.4 237.6 307.1 237.7" stroke="var(--color-N600, #0f1e57)" stroke-width="2" stroke-miterlimit="10" stroke-linecap="round" stroke-linejoin="round"/>
<path d="M294.9 220.4C296.7 220.2 298.8 220.1 301 220.6" stroke="var(--color-N600, #0f1e57)" stroke-width="2" stroke-miterlimit="10" stroke-linecap="round" stroke-linejoin="round"/>
<path d="M106.3 41.7C102.3 40.3 97.7 39.5 93.2 39C87.8 38.2 78.5 37.5 75 43.1C73.6 45.4 73.6 48.5 76 50.2C78.3 51.8 82 52.6 84.5 52.8C89.8 53.1 94.4 51.4 99.7 50.7C101.9 50.5 104.6 49.6 106.6 50.7C109.2 52.1 111.8 54.1 115.2 53.8C117.2 53.7 118.6 52.5 120.2 51.6C121.5 50.9 122 50.8 123.7 50.9C127.3 51 130.9 52.5 134.5 53C137.9 53.4 141.4 53.1 144.7 53.1C147.3 53.1 152.8 53.2 154.1 50.4C156.8 44.4 151.1 40.6 145 40.2C141.4 40 138 40.7 134.4 41.1C130.7 41.4 127 41.5 123.4 41.6C122.5 41.6 121.8 41.9 120.9 41.4C119.7 40.6 119.5 39.4 117.9 38.9C115.7 38.1 113.7 38.4 111.6 39C110.1 39.4 109.5 40.5 108.2 41.2C107.3 41.6 106.8 41.4 105.9 41.6C106 41.4 106.2 41.2 106.3 41.7Z" fill="var(--color-brand, #e4002b)"/>
<path d="M146.3 108.4C144.5 107.9 141 108.8 139.1 109.6C137 110.5 136.8 113 137 114.9C137.2 116.2 137.9 117.6 139.1 118.3C140.4 119 141.9 118.8 143.3 118.6C148.3 118.1 153.3 118.2 158.2 118.9C159.3 119.1 160.5 119.2 161.5 118.9C163.8 118.1 164.5 115 163.5 112.8C162.4 110.6 160.1 109.3 157.8 108.5C153.7 107.2 149.1 107.1 145 108.4C145.4 108.4 145.8 108.3 146.3 108.4Z" fill="var(--color-brand, #e4002b)"/>
<path d="M68.5 73.7001C65.5 79.4001 66.1 88.1 66.3 94.4C66.4 98.4 66.7 102.9 69.7 105.6C72.2 107.9 76.1 108.1 79.3 107.1C80.9 106.7 82.5 105.9 83.7 104.8C87.6 101.3 87.8 95.4001 87.7 90.2001C87.7 86.5001 87.6 82.8001 87.6 79.2001C87.6 76.5001 87.5 73.6001 86 71.5001C84.5 69.2001 81.5 68.1001 78.8 68.1001C73.4 68.1001 70.2 70.4001 68.5 73.7001Z" fill="var(--color-brand, #e4002b)"/>
<path d="M66.7 91.8999C67 87.3999 67.5 83 67.8 78.5C67.9 77 67.7 75 68.1 73.6C69 70.7 73.1 69.5 75.8 69.2C77.5 69.1 77.8 69.4 79.5 69.2C80.8 69.1 85.9 69.5 86.8 70.7C88.5 73.1 88.7 77.3 88.3 80.1C88.2 81.5 88.5 82.8 88.4 84.2C87.9 90.2 88.1 96.5999 86.7 102.4C86.5 103.3 86.3 103.6 85.8 104.3C85.4 105 84.7 105 84 105.3C81.8 106 79.3 106.5 76.9 106.7C74.9 106.9 71.5 107.7 69.8 106C69.5 105.6 69 105.1 68.7 104.8C67.6 103.5 67.2 102.4 67 100.7C66.5 96.7 66.8 90.8999 66.7 91.8999Z" stroke="var(--color-N600, #0f1e57)" stroke-width="2" stroke-miterlimit="10" stroke-linecap="round" stroke-linejoin="round"/>
<path d="M89 76.7C90 76.6 91.3 77.2 92.4 77.2C94.6 77.3 97.1 77.2 99 76.2C104.3 73.6 101.6 65 102.7 60.5C102.7 60.3 102.7 60.2 102.8 60.1C102.9 59.9 102.9 59.9 103.1 59.7C103.3 59.5 103.8 59.2 104.1 59C106.1 58.1 107.8 58.2 109.9 58.2C112.8 58.2 115.9 57.9 118.7 58.1C120.6 58.3 124.3 58.2 125.6 60C127.1 62 126.9 65.4 126.8 68C126.7 69.7 127.1 74.3 128.2 75.8C129.4 77.7 134.1 76.6 135.9 77C141.9 78.3 145.9 78.1 151.2 82.7C151.6 83 152.1 83.4999 152.4 83.8999C152.7 84.1999 152.8 84.5999 153.2 84.8999C153.5 85.1999 153.7 85.5999 154 85.8999C154.2 86.2999 154.5 86.8 154.8 87.2C155.5 88.4 155.9 90.8 156.2 92.1C157.4 96 157.1 99.6 157.1 103.5C157.1 103.8 157.1 104.3 157.1 104.6C157.1 105.1 157.1 107.5 156.9 108.1" stroke="var(--color-N600, #0f1e57)" stroke-width="2" stroke-miterlimit="10" stroke-linecap="round" stroke-linejoin="round"/>
<path d="M88 97.2001C91.8 97.1001 94.6 97.6 98.1 99.3C98.4 99.5 98.8 99.7 99.1 99.8C100 100.2 100.9 100.7 101.9 101C104.1 101.8 106.4 102.4 108.6 102.6C109.9 102.7 111.1 103 112.3 102.8C113.9 102.7 115.7 102.5 117.3 102C118.8 101.7 120.2 101.2 121.5 100.6C122.2 100.3 122.8 99.8001 123.5 99.5001C124.3 99.2001 125 98.7 125.7 98.3C128 96.8 131.2 95.6001 134.1 96.0001C136.2 96.3001 138.5 97.0001 139.9 98.5001C141.4 100.1 142.9 104.2 142.3 107.7" stroke="var(--color-N600, #0f1e57)" stroke-width="2" stroke-miterlimit="10" stroke-linecap="round" stroke-linejoin="round"/>
<path d="M140.5 118.8C139.7 118.8 138.6 119 138.2 118.4C138.1 118.3 138.1 118.1 138 117.9C137.8 116.7 137.6 115.5 137.6 114.3C137.6 113.5 137.5 112.9 137.5 112.1C137.5 110.8 137.3 108.8 139 108.6C139.5 108.5 140.2 108.6 140.9 108.7C142.4 108.9 143.8 108.7 145.3 108.7C146.2 108.7 146.9 108.7 147.8 108.6C148.2 108.6 148.6 108.5 149 108.5C149.2 108.5 149.3 108.4 149.5 108.4C153.3 107.7 157.1 108.4 160.9 108.5C161.1 108.5 161.3 108.6 161.6 108.6C161.8 108.6 161.9 108.6 162.1 108.7C163.1 109.1 163.8 109.6 164.2 110.7C164.4 111.5 164.4 112.3 164.3 113.2C164.2 114.3 164 115.5 164 116.6C164 116.7 164 116.8 164 116.9C163.3 118.3 162.9 118.6 161.2 118.5C159.2 118.4 157.2 118.2 155.1 118.4C154.3 118.5 153.6 118.5 152.8 118.4C151.9 118.4 151.1 118.5 150.3 118.5C146.8 118.4 145 118.7 142.6 118.7C142.5 118.7 140.3 118.8 140.5 118.8Z" stroke="var(--color-N600, #0f1e57)" stroke-width="2" stroke-miterlimit="10" stroke-linecap="round" stroke-linejoin="round"/>
<path d="M107.1 41.7C106.6 42.7 106.1 43.9 106 45C105.8 47.2 106.2 49.9 107.6 51.6C109.7 54.2 114.6 55.1 117.5 53.8C117.9 53.7 118.4 53.6 118.7 53.5C122.5 51.5 124.3 47.7 123.1 43.8C122.2 40.9 119.5 39.1 116.7 38.6C114.9 38.3 112.8 38.2 110.9 38.6C109.3 38.9 108 40.1 107.1 41.7Z" stroke="var(--color-N600, #0f1e57)" stroke-width="2" stroke-miterlimit="10" stroke-linecap="round" stroke-linejoin="round"/>
<path d="M107.1 50.7999C101.9 52.2999 96.2 52.9 90.8 53.1C87 53.2 82.7 53.5 79 52.2C75.6 51.1 72.7 46.7999 74.9 43.3999C77.2 39.9999 80.2 38.5 84.4 38.5C91.8 38.5 99.4 40.5 106.6 42C106.5 42 106.3 42 106.2 42" stroke="var(--color-N600, #0f1e57)" stroke-width="2" stroke-miterlimit="10" stroke-linecap="round" stroke-linejoin="round"/>
<path d="M122.5 51.0001C127.7 52.6001 133.3 53.4 138.7 53.7C142.5 53.9 146.8 54.4 150.5 53.2C154 52.1 157 47.9001 154.9 44.5001C152.6 41.0001 149.7 39.5 145.5 39.4C138.1 39.3 130.5 40.9 123.2 42.3C123.3 42.3 123.5 42.3 123.6 42.3" stroke="var(--color-N600, #0f1e57)" stroke-width="2" stroke-miterlimit="10" stroke-linecap="round" stroke-linejoin="round"/>
<path d="M278.9 159.5C277.5 163.3 287.1 167.8 287.2 159.2C287.3 151.6 278.6 154.7 278.9 159.5Z" stroke="var(--color-graph-cornflower-blue, #6a9dff)" stroke-width="2" stroke-miterlimit="10" stroke-linecap="round" stroke-linejoin="round"/>
<path d="M274.5 142.9C273.5 145.3 279.1 147.6 279.7 143C280.3 138.7 273.9 139.1 274.5 142.9Z" stroke="var(--color-graph-cornflower-blue, #6a9dff)" stroke-width="2" stroke-miterlimit="10" stroke-linecap="round" stroke-linejoin="round"/>
<path d="M294.7 154.1C295.9 158.7 302.6 157.9 301.7 152.7C300.8 148.4 295.4 150.1 294.7 154.1Z" stroke="var(--color-graph-cornflower-blue, #6a9dff)" stroke-width="2" stroke-miterlimit="10" stroke-linecap="round" stroke-linejoin="round"/>
<path d="M210.3 85.6998C209.6 87.2998 213.8 89.1999 213.8 85.5999C213.8 82.2999 210 83.5998 210.3 85.6998Z" fill="var(--color-graph-cornflower-blue, #6a9dff)"/>
<path d="M223.6 81.5998C222.7 83.7998 227.7 85.9998 228.4 81.6998C229.1 77.5998 223.2 78.0998 223.6 81.5998Z" fill="var(--color-graph-cornflower-blue, #6a9dff)"/>
<path d="M220 97.5001C221.1 101.4 227 100.9 226.1 96.2001C225.4 92.5001 220.6 94.0001 220 97.5001Z" fill="var(--color-graph-cornflower-blue, #6a9dff)"/>
<path d="M165.9 149.6C163.9 149.1 165.6 152.2 166 152.9C166.9 154.3 168.9 156.1 170.7 156.1C172.7 156.2 172.4 154.1 171.7 152.8C170 150.4 167.7 149.8 165.9 149.6Z" fill="var(--color-blue-light, #e5eaff)"/>
<path d="M163.6 148.7C163.9 149.9 170.9 161.4 172.5 155.4C173.7 150.9 166.1 149.5 163.6 148.7Z" stroke="var(--color-N600, #0f1e57)" stroke-width="2" stroke-miterlimit="10" stroke-linecap="round" stroke-linejoin="round"/>
<path d="M126.5 143.9C125.4 144.3 123.5 144.1 123.1 145.6C122.8 146.7 124.1 148.2 124.9 148.9C127.6 150.9 131 150.9 133.4 148.4C134.6 147.3 135.8 145.5 134 144.4C132.7 143.6 130.2 143.4 128.8 143.5C127.6 143.4 126.1 144.5 126.5 143.9Z" fill="var(--color-blue-light, #e5eaff)"/>
<path d="M135.9 144.3C132.6 142.9 118.2 142.6 124.7 148.5C128.5 152.1 137.3 148.5 135.9 144.3Z" stroke="var(--color-N600, #0f1e57)" stroke-width="2" stroke-miterlimit="10" stroke-linecap="round" stroke-linejoin="round"/>
<path d="M164.2 136.9C163.4 137.8 162.5 140.3 163.7 141.1C165.1 142 168.3 140.1 169.3 139.3C170.5 138.2 170.6 136.9 169.2 135.8C166.7 134.1 164.7 136.4 164.2 136.9Z" fill="var(--color-blue-light, #e5eaff)"/>
<path d="M163.2 141.7C169.3 142.2 174.5 136.2 167.4 135.4C165.1 135 161.2 139.5 163.2 141.7Z" stroke="var(--color-N600, #0f1e57)" stroke-width="2" stroke-miterlimit="10" stroke-linecap="round" stroke-linejoin="round"/>
<path d="M187.1 323C186.8 323.2 186.5 323.2 186.1 323.2C185.9 323 186.6 322.9 186.6 323.2C186.6 323.5 186.3 323.7 186 323.8C172.4 328.2 156.2 323.3 142.2 323.2C139.9 323.2 137.5 323.4 135.2 323.4C133.2 323.4 131.2 323.6 129.1 323.6C126.8 323.5 124.5 323.9 122.2 323.7C120 323.5 117.9 323.5 115.7 323.5C113.2 323.5 110.8 323.4 108.3 323.4C90.6 323.2 71.9 321.5 54.3 323.2C53.2 323.3 52.3 323.2 51.2 323.1C50.2 323 49.2 323.3 48.1 323.3C46 323.4 43.8 323.3 41.7 323.1C40.7 322.9 39.6 323.1 38.6 323C37.5 323 36.4 322.8 35.3 322.7C33.4 322.5 31.7 322.2 29.8 322.2C28.8 322.2 27.9 322.2 26.8 322C26.1 321.8 25.4 322 24.6 321.7C23.4 321.3 22 320.6 21 319.8C14.6 314.7 13 303.4 19.2 297.2C19.5 296.9 19.8 296.7 20.2 296.4C20.8 295.8 21.5 295.3 22.1 294.8C23.1 294 24.4 293.7 25.5 293.1C30.7 290.8 34.3 290.8 39.8 291.3C40 291.3 40.3 291.3 40.5 291.3C40.6 291.3 41.1 291.5 41.2 291.5C41.7 291.3 41.7 290.7 41.6 290.3C41.4 289.3 40.8 288.7 40.2 288C39 286.4 37.5 284.8 37.1 282.8C37 282.5 37.1 282.1 37.1 281.8C37 281.4 36.9 281 36.9 280.5C36.9 280 36.7 279.6 36.7 279.2C36.7 278.4 36.9 277.6 36.9 276.8C36.9 275 36.7 273.2 37 271.4C38 262.5 41.1 253.8 48.1 247.9C53.3 243.5 61.2 239.1 68.1 237.9C68.6 237.8 69.1 237.9 69.6 237.8C70.1 237.7 70.6 237.6 71 237.6C72.3 237.6 73.4 237.8 74.6 237.9C91.3 239.8 103.3 249.3 109.8 264.6C110.5 266.4 111.7 268.2 111.8 270.2C111.8 270.8 111.7 271.4 111.4 271.9C113.8 268.7 115.3 267.4 119.8 267C127.9 266.3 137.3 268 143 274.3C143.6 274.9 144 275.8 144.7 276.5C145.8 277.6 146.6 278.9 147.3 280.4C148.3 282.3 148.7 284.3 149.6 286.4C151.4 291.2 152 295.7 150.3 300.5C151 300.8 151.7 301.1 152.4 301.5C154.3 302.5 156.3 303 158.1 303.8C163.7 306 169.8 307 175.2 310.1C175.9 310.5 176.6 310.9 177.4 311.3C178.3 311.8 179 312.4 179.9 312.9C182.7 314.3 187.7 315.8 189 319C189.2 320.3 188.5 322.4 187.1 323Z" fill="var(--color-N600, #0f1e57)"/>
</svg>
